<?xml version="1.0" standalone="no"?>
<!DOCTYPE svg PUBLIC "-//W3C//DTD SVG 20010904//EN"
 "http://www.w3.org/TR/2001/REC-SVG-20010904/DTD/svg10.dtd">
<svg version="1.0" xmlns="http://www.w3.org/2000/svg"
 width="512.000000pt" height="512.000000pt" viewBox="0 0 512.000000 512.000000"
 preserveAspectRatio="xMidYMid meet">
<metadata>
Created by potrace 1.11, written by Peter Selinger 2001-2013
</metadata>
<g transform="translate(0.000000,512.000000) scale(0.100000,-0.100000)"
fill="#000000" stroke="none">
<path d="M0 2560 l0 -2560 2560 0 2560 0 0 2560 0 2560 -2560 0 -2560 0 0
-2560z m3381 1744 c235 -40 420 -124 578 -263 l45 -38 -23 -64 c-85 -233 -277
-517 -492 -725 -264 -255 -570 -440 -992 -600 -527 -200 -822 -370 -1104 -638
-175 -166 -314 -355 -399 -540 -21 -47 -42 -86 -45 -86 -19 0 -97 207 -124
330 -22 102 -31 375 -15 493 66 502 326 996 739 1407 396 393 876 650 1354
724 129 20 361 20 478 0z m818 -582 c38 -76 76 -188 98 -292 14 -67 18 -128
18 -290 -1 -184 -4 -218 -28 -335 -98 -463 -341 -892 -716 -1265 -604 -600
-1382 -865 -2009 -684 -136 40 -293 127 -406 227 l-49 43 23 70 c60 180 188
386 343 550 250 264 578 468 1012 629 541 200 861 392 1176 705 201 200 378
445 465 645 15 35 32 61 36 59 5 -3 21 -31 37 -62z"/>
</g>
</svg>
